- 
http://www.Speed.Cd      fast  and The Hottest Private Tracker on the net

   signup is open now

Please Seed back to make the speed Faster!!!

------------------nfo--------------------------
-UUUUUUUU     UUUUUUUU           SSSSSSSSSSSSSSS         MMMMMMMM               MMMMMMMM     
U::::::U     U::::::U         SS:::::::::::::::S        M:::::::M             M:::::::M     
U::::::U     U::::::U        S:::::SSSSSS::::::S        M::::::::M           M::::::::M     
UU:::::U     U:::::UU        S:::::S     SSSSSSS        M:::::::::M         M:::::::::M     
 U:::::U     U:::::U         S:::::S                    M::::::::::M       M::::::::::M     
 U:::::D     D:::::U         S:::::S                    M:::::::::::M     M:::::::::::M     
 U:::::D     D:::::U          S::::SSSS                 M:::::::M::::M   M::::M:::::::M     
 U:::::D     D:::::U           SS::::::SSSSS            M::::::M M::::M M::::M M::::::M     
 U:::::D     D:::::U             SSS::::::::SS          M::::::M  M::::M::::M  M::::::M     
 U:::::D     D:::::U                SSSSSS::::S         M::::::M   M:::::::M   M::::::M     
 U:::::D     D:::::U                     S:::::S        M::::::M    M:::::M    M::::::M     
 U::::::U   U::::::U                     S:::::S        M::::::M     MMMMM     M::::::M     
 U:::::::UUU:::::::U         SSSSSSS     S:::::S        M::::::M               M::::::M     
  UU:::::::::::::UU   ...... S::::::SSSSSS:::::S ...... M::::::M               M::::::M     
    UU:::::::::UU     .::::. S:::::::::::::::SS  .::::. M::::::M               M::::::M     
      UUUUUUUUU       ......  SSSSSSSSSSSSSSS    ...... MMMMMMMM               MMMMMMMM   



                         In Time 2011 R5 LiNE READNFO XViD - U.S.M


SOURCES:

Vremya.2011.DVD9
In Time 2011 R5 PROPER LiNE XviD - MiSTERE

IMDB:
 
http://www.imdb.com/title/tt1637688/ 


Video
ID                               : 0
Format                           : MPEG-4 Visual
Format profile                   : Advanced Simple@L5
Format settings, BVOP            : 2
Format settings, QPel            : No
Format settings, GMC             : No warppoints
Format settings, Matrix          : Default (H.263)
Muxing mode                      : Packed bitstream
Codec ID                         : XVID
Codec ID/Hint                    : XviD
Duration                         : 1h 44mn
Bit rate                         : 1 749 Kbps
Width                            : 720 pixels
Height                           : 304 pixels
Display aspect ratio             : 2.35:1
Frame rate                       : 25.000 fps
Color space                      : YUV
Chroma subsampling               : 4:2:0
Bit depth                        : 8 bits
Scan type                        : Progressive
Compression mode                 : Lossy
Bits/(Pixel*Frame)               : 0.320
Stream size                      : 1.28 GiB (93%)
Writing library                  : XviD 64

Audio
ID                               : 1
Format                           : MPEG Audio
Format version                   : Version 1
Format profile                   : Layer 3
Codec ID                         : 55
Codec ID/Hint                    : MP3
Duration                         : 1h 44mn
Bit rate mode                    : Constant
Bit rate                         : 128 Kbps
Channel(s)                       : 2 channels
Sampling rate                    : 44.1 KHz
Compression mode                 : Lossy
Stream size                      : 95.9 MiB (7%)
Alignment                        : Split accross interleaves
Interleave, duration             : 40 ms (1.00 video frame)
Interleave, preload duration     : 500 ms


WORKDONE:

Ok better late then never i guess lol ....anyway for this we took the dvd9 and cropped,resized it.then tweaked the contrast
and brightness slightly,increased chroma by +2 and also slightly changed the rgb colours.Also when making the script we add
a heavy noise filter and then finally we added some sharpness back into it.
Now for the readnfo ....well thats for the audio after all the bitching and moaning or mis tagging or whatever you want to say...
The audio used is line and not too bad ...we've heard alot worse.Now there is or was a high pitch buzz throughout....so
dropped it adobe and ran a hiss removal ...only a standard one otherwise it fecked it up.From there we opened up the EQ and when through
the bands until we find the one where the buzz was and lowered that down.
Also whilst there because of the filters we used to remove it ( the best we could ) ...the audio does suffer slightly so we changed most of 
the bands to get a half decent sound.
Check sample for Q and its the best we could do ....but anyone do better please feel free too post for us all :D

SCREENIES:

[IMG]http://lookpic.com/O/i2/1690/imY9htmY.png[/IMG]
[IMG]http://lookpic.com/O/i2/1154/jiA6WMqX.png[/IMG]
[IMG]http://lookpic.com/O/i2/1925/kLUhk2nN.png[/IMG]
[IMG]http://lookpic.com/O/i2/1047/izIuivhT.png[/IMG]
[IMG]http://lookpic.com/O/i2/1049/qCVusDWM.png[/IMG]
[IMG]http://lookpic.com/O/i2/935/k0J4oEHI.png[/IMG]